# xmcd
#
# Track frame offsets:
# 150
# 15305
# 29455
# 46315
# 62375
# 78085
# 91940
# 109815
# 125765
# 137232
# 150482
# 163572
# 179137
# 192882
# 211490
#
# Disc length: 3008 seconds
#
#
# Revision: 0
# Processed by: cddbd v1.4PL0 Copyright (c) Steve Scherf et al.
# Submitted via: FreeRIP 2.30 
#
DISCID=c20bbe0f
DTITLE=Diverse - Dansbandens guldkorn
DYEAR=1998
DGENRE=Folk
TTITLE0=Gråt inga tårar/Thorleifs
TTITLE1=Inget kan stoppa oss nu/BlackJack
TTITLE2=Tusen vackra bilder/Lotta and Anders Engberg
TTITLE3=Gösta gigolo/Ingmar Nordströms
TTITLE4=Jag vill vara din Margareta/Sten and Stanley
TTITLE5=Dej ska jag älska all min tid/Leif Bloms
TTITLE6=Till min kära/Thor Görans
TTITLE7=Som en ostämd ton/Bodil Hovelids
TTITLE8=Älskar, älskar inte/Streaplers
TTITLE9=Place de Trocadero/Wizex
TTITLE10=Det är kärlek/Curt Haagers
TTITLE11=Vår dotter/Tommys
TTITLE12=Du har det där/Grönwalls
TTITLE13=Ljus och värme/Matz Bladhs
TTITLE14=Vi är på väg/Marty med Sussie Rohdin
EXTD=
EXTT0=
EXTT1=
EXTT2=
EXTT3=
EXTT4=
EXTT5=
EXTT6=
EXTT7=
EXTT8=
EXTT9=
EXTT10=
EXTT11=
EXTT12=
EXTT13=
EXTT14=
PLAYORDER=
